<?xml version="1.0" encoding="UTF-8" standalone="no"?>
<!-- Created with Inkscape (http://www.inkscape.org/) -->

<svg
   width="1920"
   height="640"
   viewBox="0 0 507.99994 169.33331"
   version="1.1"
   id="svg5"
   inkscape:version="1.2.2 (732a01da63, 2022-12-09)"
   sodipodi:docname="logo.svg"
   inkscape:export-filename="logo.png"
   inkscape:export-xdpi="96"
   inkscape:export-ydpi="96"
   xmlns:inkscape="http://www.inkscape.org/namespaces/inkscape"
   xmlns:sodipodi="http://sodipodi.sourceforge.net/DTD/sodipodi-0.dtd"
   xmlns="http://www.w3.org/2000/svg"
   xmlns:svg="http://www.w3.org/2000/svg"
   xmlns:rdf="http://www.w3.org/1999/02/22-rdf-syntax-ns#"
   xmlns:cc="http://creativecommons.org/ns#"
   xmlns:dc="http://purl.org/dc/elements/1.1/">
  <title
     id="title94">eVelyN Logo</title>
  <sodipodi:namedview
     id="namedview7"
     pagecolor="#ffffff"
     bordercolor="#000000"
     borderopacity="0.25"
     inkscape:showpageshadow="2"
     inkscape:pageopacity="0.0"
     inkscape:pagecheckerboard="true"
     inkscape:deskcolor="#1b1b1b"
     inkscape:document-units="mm"
     showgrid="false"
     inkscape:zoom="0.52724989"
     inkscape:cx="917.9708"
     inkscape:cy="411.56955"
     inkscape:window-width="1920"
     inkscape:window-height="1017"
     inkscape:window-x="-8"
     inkscape:window-y="-8"
     inkscape:window-maximized="1"
     inkscape:current-layer="text110" />
  <defs
     id="defs2">
    <rect
       x="0"
       y="0"
       width="1920"
       height="640"
       id="rect112" />
  </defs>
  <g
     inkscape:groupmode="layer"
     id="layer2"
     inkscape:label="bgcirc">
    <ellipse
       style="font-size:400px;font-family:Chicago;-inkscape-font-specification:Chicago;white-space:pre;shape-inside:url(#rect112);fill:#552200;fill-opacity:1;stroke:#000000;stroke-width:0;stroke-dasharray:none;stroke-opacity:1"
       id="path4970"
       cx="954.56378"
       cy="276.14966"
       rx="960"
       ry="320"
       transform="matrix(0.26458333,0,0,0.26458333,1.4383364,11.602066)"
       inkscape:label="back" />
    <ellipse
       style="font-size:400px;font-family:Chicago;-inkscape-font-specification:Chicago;white-space:pre;shape-inside:url(#rect112);fill:#e6e6e6;fill-opacity:1;stroke:#000000;stroke-width:0;stroke-dasharray:none;stroke-opacity:1"
       id="ellipse4975"
       cx="254"
       cy="84.666664"
       rx="217.56631"
       ry="84.666664"
       inkscape:label="white" />
  </g>
  <g
     inkscape:label="name"
     inkscape:groupmode="layer"
     id="layer1">
    <g
       aria-label="EVELYN"
       transform="matrix(0.26458333,0,0,0.26458333,1.4383364,11.602066)"
       id="text110"
       style="font-size:400px;font-family:Chicago;-inkscape-font-specification:Chicago;white-space:pre;shape-inside:url(#rect112)"
       inkscape:label="words">
      <path
         d="m 130.36923,416.6665 v -300 h 166.60156 v 33.39844 h -100 v 100 h 66.79687 v 33.20312 h -66.79687 v 100 h 100 v 33.39844 z"
         style="text-align:center;text-anchor:middle;fill:#000000;stroke:#000000;stroke-opacity:1;stroke-width:0;stroke-dasharray:none"
         id="path308" />
      <path
         d="m 554.66155,66.666626 h 88.80203 V 314.84356 q 0,61.97913 -44.79164,107.03118 -44.53122,44.79164 -107.03118,44.79164 H 376.79708 V 66.666626 h 88.80203 V 422.13516 h 44.53122 q 18.48957,0 31.5104,-13.02083 13.02082,-13.28124 13.02082,-31.24998 z"
         style="font-size:533.333px;text-align:center;text-anchor:middle;fill:#ff6600;fill-opacity:1;stroke:#000000;stroke-opacity:1;stroke-width:0;stroke-dasharray:none"
         id="path310" />
      <path
         d="m 719.23617,416.6665 v -300 h 166.60156 v 33.39844 h -100 v 100 h 66.79688 v 33.20312 h -66.79688 v 100 h 100 v 33.39844 z"
         style="text-align:center;text-anchor:middle;fill:#000000;stroke:#000000;stroke-opacity:1;stroke-width:0;stroke-dasharray:none"
         id="path312" />
      <path
         d="m 952.63461,416.6665 v -300 h 66.60159 v 266.60156 h 100 v 33.39844 z"
         style="text-align:center;text-anchor:middle;fill:#000000;stroke:#000000;stroke-opacity:1;stroke-width:0;stroke-dasharray:none"
         id="path314" />
      <path
         d="M 1252.6346,416.6665 V 283.26806 q -66.6015,-7.61718 -66.6015,-66.60156 v -100 h 66.6015 v 100 q 0,13.67188 9.7657,23.63281 9.9609,9.76563 23.6328,9.76563 13.6718,0 23.4375,-9.76563 9.9609,-9.96093 9.9609,-23.63281 v -100 h 66.6016 v 100 q 0,58.98438 -66.6016,66.60156 V 416.6665 Z"
         style="text-align:center;text-anchor:middle;fill:#000000;stroke:#000000;stroke-opacity:1;stroke-width:0;stroke-dasharray:none"
         id="path316" />
      <path
         d="M 1465.664,466.66638 V 66.666626 h 20.3125 l 246.354,222.135284 V 66.666626 h 44.5312 V 466.66638 h -20.3124 L 1510.1952,244.5311 v 222.13528 z"
         style="font-size:533.333px;text-align:center;text-anchor:middle;fill:#ff6600;fill-opacity:1;stroke:#000000;stroke-opacity:1;stroke-width:0;stroke-dasharray:none"
         id="path318" />
    </g>
  </g>
  <metadata
     id="metadata92">
    <rdf:RDF>
      <cc:Work
         rdf:about="">
        <dc:title>eVelyN Logo</dc:title>
      </cc:Work>
    </rdf:RDF>
  </metadata>
</svg>
